<?xml version="1.0" encoding="UTF-8"?>
<svg version="1.1" xmlns="http://www.w3.org/2000/svg" width="1200" height="1200">
<path d="M0 0 C396 0 792 0 1200 0 C1200 396 1200 792 1200 1200 C804 1200 408 1200 0 1200 C0 804 0 408 0 0 Z " fill="#ECEAE9" transform="translate(0,0)"/>
<path d="M0 0 C0.66 0 1.32 0 2 0 C2.41548096 1.15145508 2.83096191 2.30291016 3.2590332 3.48925781 C16.61276473 40.48867527 30.05127947 77.45686995 43.66015625 114.36328125 C43.89691196 115.00543076 44.13366768 115.64758026 44.37759781 116.30918884 C46.90641282 123.16784331 49.43728271 130.02573 51.97167969 136.88232422 C55.55418681 146.58094995 59.13525655 156.28003396 62.60546875 166.01953125 C62.85460526 166.71294113 63.10374176 167.40635101 63.36042786 168.12077332 C65 172.76264918 65 172.76264918 65 175 C66.13050781 175.12632812 67.26101563 175.25265625 68.42578125 175.3828125 C101.57224818 179.57967074 136.10954541 195.29745713 163.82446289 213.48217773 C164.57074951 213.95985596 165.31703613 214.43753418 166.0859375 214.9296875 C166.7257959 215.35491699 167.3656543 215.78014648 168.02490234 216.21826172 C171.86341145 217.73753319 174.79523085 216.08770622 178.43481445 214.52880859 C179.74694055 213.90755782 181.0562869 213.28041313 182.36328125 212.6484375 C183.07292526 212.31131744 183.78256927 211.97419739 184.51371765 211.62686157 C186.78252469 210.54815653 189.04769809 209.46208558 191.3125 208.375 C197.1976367 205.56039743 203.09035723 202.76281812 209 200 C209.73909607 199.6534436 210.47819214 199.30688721 211.23968506 198.9498291 C213.39741158 197.94529563 215.5622818 196.95828101 217.73046875 195.9765625 C218.37494461 195.67503265 219.01942047 195.37350281 219.6834259 195.06283569 C222.70021653 193.71763875 224.81277592 192.9924639 228.1418457 193.12646484 C232.21511129 192.94623493 233.25011404 190.90486022 236 188 C238.4808742 186.61049337 240.87165076 185.38368885 243.44921875 184.21484375 C244.53062637 183.70860474 244.53062637 183.70860474 245.63388062 183.19213867 C247.98037477 182.09677968 250.33369424 181.01704536 252.6875 179.9375 C254.33108153 179.17419172 255.97422562 178.40994087 257.61694336 177.64477539 C261.67746297 175.75636567 265.74351797 173.88025438 269.81164551 172.00830078 C272.85430975 170.60637036 275.89204248 169.19402347 278.9296875 167.78125 C284.07989925 165.38967689 289.23901276 163.01806353 294.40136719 160.65283203 C297.8500261 159.06888218 301.29509021 157.47738172 304.73933411 155.88386536 C307.93142296 154.40814062 311.12555018 152.9368628 314.32003784 151.46633911 C315.88212253 150.74625828 317.44344056 150.02451168 319.00393677 149.30099487 C321.19187234 148.28704901 323.38268109 147.27956938 325.57421875 146.2734375 C326.22105621 145.97191269 326.86789368 145.67038788 327.53433228 145.35972595 C331.63901236 143.48510204 335.65059106 142.13955563 340 141 C334.01423133 154.37938411 327.92699488 167.70792406 321.75 181 C320.90940194 182.81114999 320.0689088 184.62234868 319.22851562 186.43359375 C317.18241674 190.84275944 315.13507474 195.25134627 313.0871582 199.65966797 C311.57322896 202.91871259 310.060038 206.17809955 308.546875 209.4375 C307.02612737 212.71301182 305.50533814 215.98850426 303.984375 219.26391602 C302.3226919 222.84250636 300.66124375 226.42120569 299 230 C298.4901355 231.09837189 298.4901355 231.09837189 297.9699707 232.21893311 C296.83922595 234.6550099 295.7086561 237.0911678 294.578125 239.52734375 C294.18703049 240.36993744 293.79593597 241.21253113 293.39299011 242.08065796 C291.3697697 246.44094987 289.34959957 250.80261517 287.33520508 255.16699219 C283.65349511 263.14040397 279.96051158 271.10675539 276.18728638 279.03736877 C274.56304968 282.45559608 272.95200257 285.8799501 271.34265137 289.3052063 C270.57746378 290.92467007 269.80596814 292.54116952 269.0279541 294.1545105 C267.95431116 296.38223512 266.90271839 298.61915005 265.85546875 300.859375 C265.5336412 301.51267288 265.21181366 302.16597076 264.88023376 302.83906555 C263.49980059 305.84559443 262.87264308 307.506541 263.71264648 310.76123047 C265.38315882 313.66633158 267.09810977 316.53432137 268.875 319.375 C284.77400996 345.49785174 296.26105885 373.15737525 303.8125 402.75 C304.03204346 403.60891846 304.25158691 404.46783691 304.4777832 405.3527832 C304.67718506 406.1593335 304.87658691 406.96588379 305.08203125 407.796875 C305.25968018 408.51198242 305.4373291 409.22708984 305.62036133 409.96386719 C306 412 306 412 306 416 C307.23234375 416.23460937 308.4646875 416.46921875 309.734375 416.7109375 C315.81332927 418.06890126 321.46508695 420.3494531 327.25 422.625 C339.79296018 427.48858833 352.43725134 432.02977838 365.125 436.5 C383.87964567 443.11684586 402.53071623 449.98841984 421.15600586 456.96020508 C423.27195091 457.75217398 425.3879176 458.54408509 427.50390625 459.3359375 C429.06059273 459.91854591 429.06059273 459.91854591 430.64872742 460.51292419 C441.64279914 464.62262657 452.66220217 468.66244784 463.6875 472.6875 C464.58182739 473.01404572 465.47615479 473.34059143 466.39758301 473.67703247 C471.26426628 475.45352498 476.13173186 477.22785545 481 479 C477.80798781 481.12800813 474.6211008 482.36272862 471.046875 483.66015625 C470.33640518 483.92149857 469.62593536 484.18284088 468.89393616 484.45210266 C466.51405198 485.32618475 464.13206053 486.19436814 461.75 487.0625 C460.05158557 487.68481067 458.35326409 488.30737508 456.6550293 488.93017578 C442.39593871 494.15248958 428.10992347 499.30053643 413.82525635 504.45236206 C399.56215351 509.59826071 385.33028397 514.82164623 371.125 520.125 C357.34361638 525.26713336 343.56126152 530.40625082 329.75628662 535.48480225 C327.93194633 536.15674476 326.10824534 536.83042579 324.28521729 537.50592041 C321.77515096 538.43565005 319.2629139 539.35924978 316.75 540.28125 C316.00531464 540.55850922 315.26062927 540.83576843 314.49337769 541.12142944 C311.5235128 542.20460605 309.18807974 543 306 543 C305.90203125 543.62003906 305.8040625 544.24007812 305.703125 544.87890625 C299.74681388 580.15464539 285.06343531 617.91098075 264.94921875 647.5625 C263.6094715 651.00283862 264.69225814 652.5866153 266 656 C266.99845138 658.26156485 268.03132454 660.50810652 269.08984375 662.7421875 C269.39001404 663.37862183 269.69018433 664.01505615 269.99945068 664.67077637 C270.64220066 666.03287967 271.28641627 667.39429218 271.93197632 668.75506592 C273.6440489 672.36460897 275.34479546 675.97948689 277.046875 679.59375 C277.38744431 680.31621918 277.72801361 681.03868835 278.0789032 681.78305054 C280.98909077 687.961867 283.85108028 694.16196543 286.6875 700.375 C287.34758057 701.81999878 287.34758057 701.81999878 288.02099609 703.29418945 C288.90501523 705.22946144 289.78896752 707.16476397 290.67285156 709.10009766 C292.9578247 714.09290688 295.26014222 719.07768922 297.5625 724.0625 C298.29122314 725.64091675 298.29122314 725.64091675 299.03466797 727.2512207 C301.37004503 732.30874164 303.70650836 737.36575741 306.04492188 742.421875 C308.30175258 747.30163466 310.55749046 752.18189849 312.8125 757.0625 C313.38464737 758.30063446 313.38464737 758.30063446 313.96835327 759.56378174 C320.11292445 772.86498257 326.20105387 786.19103063 332.22973633 799.54516602 C332.80666723 800.82053686 333.3837289 802.09584856 333.9609375 803.37109375 C334.48526367 804.5297998 335.00958984 805.68850586 335.54980469 806.88232422 C336.79435964 809.55790785 338.10579846 812.17297867 339.4765625 814.78515625 C339.97929688 815.84605469 340.48203125 816.90695312 341 818 C340.67 818.66 340.34 819.32 340 820 C339.142854 819.59386475 338.28570801 819.18772949 337.40258789 818.76928711 C321.48605947 811.23248817 305.5490625 803.75092448 289.5 796.5 C278.14110481 791.36704601 266.83347753 786.13578099 255.5625 780.8125 C238.34603201 772.68272312 221.07126191 764.68606252 203.75390625 756.7734375 C202.5585601 756.22722748 202.5585601 756.22722748 201.33906555 755.66998291 C197.38434194 753.8631628 193.42909496 752.05750341 189.47290039 750.25390625 C188.02620413 749.59375064 186.57950816 748.93359442 185.1328125 748.2734375 C184.47048111 747.97190765 183.80814972 747.67037781 183.12574768 747.35971069 C178.14279893 745.08481649 178.14279893 745.08481649 175.86669922 743.73291016 C173.20021967 742.68598737 171.70611237 743.13337523 169 744 C166.44840861 745.39299166 166.44840861 745.39299166 163.90625 747.16015625 C136.24519459 765.30925235 99.57174517 783.06987862 66 785 C65.83025162 785.59094955 65.66050323 786.18189911 65.48561096 786.79075623 C63.55401239 793.38535793 61.32817854 799.83419077 58.96484375 806.28515625 C58.57429306 807.35808426 58.18374237 808.43101227 57.78135681 809.53645325 C56.50289816 813.04617354 55.22029338 816.55436195 53.9375 820.0625 C53.03579182 822.53460297 52.13426451 825.00677191 51.23291016 827.47900391 C43.65136067 848.26540611 36.02595112 869.03575246 28.38235474 889.79940796 C26.01494266 896.23321839 23.65546744 902.66989163 21.30102539 909.10845947 C19.65975213 913.59664155 18.01657875 918.08412705 16.37335205 922.57159424 C15.59422376 924.70093353 14.81599765 926.83060318 14.03875732 928.96063232 C6.32290266 950.10355183 6.32290266 950.10355183 2 960 C0.26436726 957.39655088 -0.68610127 955.41349545 -1.72973633 952.51513672 C-2.06305466 951.59592941 -2.39637299 950.67672211 -2.73979187 949.72966003 C-3.10023087 948.7231691 -3.46066986 947.71667816 -3.83203125 946.6796875 C-4.4076757 945.08831718 -4.4076757 945.08831718 -4.99494934 943.46479797 C-5.83054193 941.15385099 -6.66436335 938.84226302 -7.49664307 936.53012085 C-9.52016175 930.90929296 -11.55420683 925.29227865 -13.58860779 919.67538261 C-14.0606661 918.37191352 -14.53257824 917.06839148 -15.00434875 915.76481819 C-19.72085038 902.73327513 -24.50991906 889.72899712 -29.31558228 876.73007202 C-36.65751048 856.8668084 -43.93916547 836.98279271 -51.125 817.0625 C-51.50730774 816.00533783 -51.88961548 814.94817566 -52.2835083 813.85897827 C-53.36123313 810.87709301 -54.43517446 807.89387453 -55.5078125 804.91015625 C-55.81932251 804.04921356 -56.13083252 803.18827087 -56.45178223 802.30123901 C-58.49818741 796.58801816 -60.30938339 790.82818341 -62 785 C-63.7325 784.87625 -63.7325 784.87625 -65.5 784.75 C-98.53229744 780.84894647 -133.44055744 764.59854633 -161.02758789 746.41650391 C-161.75324951 745.94905762 -162.47891113 745.48161133 -163.2265625 745 C-164.14816162 744.38125 -164.14816162 744.38125 -165.08837891 743.75 C-168.86173887 742.26957065 -171.85797767 743.94071989 -175.44042969 745.43603516 C-176.7701028 746.04825715 -178.09710088 746.66631064 -179.421875 747.2890625 C-180.14596054 747.6240123 -180.87004608 747.9589621 -181.61607361 748.30406189 C-183.99631463 749.40622792 -186.37309092 750.51566914 -188.75 751.625 C-191.27040299 752.79414893 -193.79168902 753.96137853 -196.31303406 755.12849426 C-198.03118039 755.92393787 -199.74904313 756.71999432 -201.46662903 757.51664734 C-208.85204213 760.94017012 -216.26342641 764.3042638 -223.68167114 767.65588379 C-236.51652263 773.45711872 -249.280434 779.39804648 -262.01507568 785.41583252 C-270.63799548 789.48988335 -279.2714276 793.52847892 -287.98583984 797.40405273 C-293.76221618 799.97842639 -299.5128591 802.60643965 -305.2578125 805.25 C-306.08897079 805.63245377 -306.92012909 806.01490753 -307.776474 806.40895081 C-311.99294488 808.34996711 -316.20838917 810.29319307 -320.4230957 812.23803711 C-321.98908626 812.95949174 -323.55508525 813.68092807 -325.12109375 814.40234375 C-326.20108139 814.90175476 -326.20108139 814.90175476 -327.30288696 815.41125488 C-330.83553838 817.03764055 -334.37010072 818.59845188 -338 820 C-335.70849287 812.32513606 -332.43224255 805.22975574 -328.99368286 798.02108765 C-327.63107962 795.16393533 -326.28015991 792.30130975 -324.92860413 789.43891907 C-324.24532995 787.99196103 -323.56152389 786.54525403 -322.87718201 785.09880066 C-320.06296344 779.14774618 -317.29720834 773.17553194 -314.5625 767.1875 C-314.13630371 766.25510498 -313.71010742 765.32270996 -313.27099609 764.36206055 C-311.84607065 761.24194724 -310.42298712 758.12099778 -309 755 C-306.37650634 749.24931207 -303.75119985 743.49945252 -301.125 737.75 C-300.78139435 736.99762054 -300.4377887 736.24524109 -300.08377075 735.47006226 C-295.08286103 724.52238638 -290.03888766 713.5959616 -284.95605469 702.68603516 C-279.67419793 691.33381355 -274.47799003 679.94270579 -269.29101562 668.546875 C-268.96118683 667.82329803 -268.63135803 667.09972107 -268.29153442 666.35421753 C-267.6759186 665.00366891 -267.06116602 663.65272631 -266.44747925 662.30130005 C-265.11926874 659.38899054 -263.75239329 656.53154738 -262.25610352 653.70068359 C-260.71096119 651.1010736 -260.71096119 651.1010736 -261.56640625 648.53125 C-263.29488204 645.47933634 -265.08161602 642.47531248 -266.9375 639.5 C-278.08918804 621.12324246 -286.56734393 602.165034 -294 582 C-294.28601074 581.22930176 -294.57202148 580.45860352 -294.86669922 579.66455078 C-295.53340563 577.84540113 -296.17418111 576.01680366 -296.8125 574.1875 C-297.20566406 573.08148437 -297.59882813 571.97546875 -298.00390625 570.8359375 C-298.85724915 567.54973071 -299.21397406 564.77202875 -299.46484375 561.4140625 C-300.15091594 555.01054983 -301.05633014 549.25109875 -305 544 C-312.58049626 538.77040889 -321.90652599 536.5960917 -330.67941284 534.13293457 C-339.10400853 531.75809495 -347.24758109 528.72300382 -355.43670654 525.64660645 C-359.75731168 524.02996742 -364.09230377 522.45282512 -368.42578125 520.87109375 C-370.18317214 520.22788396 -371.94049618 519.58449147 -373.69775391 518.94091797 C-379.90375067 516.66895849 -386.11040173 514.39878884 -392.31710815 512.12876892 C-396.66826714 510.53736232 -401.01932836 508.94568983 -405.37011719 507.35327148 C-406.631772 506.89149757 -406.631772 506.89149757 -407.91891479 506.4203949 C-409.58389564 505.81099708 -411.24887371 505.20159167 -412.91384888 504.59217834 C-417.36038504 502.96495065 -421.80767613 501.33981878 -426.25596619 499.71739197 C-443.89159178 493.284423 -461.4643072 486.69975487 -479 480 C-477.63699144 477.27398289 -475.88393169 477.09351033 -473.11584473 476.14625549 C-472.40730347 475.91107712 -471.69876221 475.67589874 -470.96875 475.43359375 C-469.40185241 474.89710347 -467.83547548 474.35909089 -466.26953125 473.81982422 C-464.99360107 473.38219757 -464.99360107 473.38219757 -463.69189453 472.93572998 C-458.91017467 471.27355541 -454.15952335 469.52667787 -449.40625 467.78515625 C-448.37842407 467.40935425 -447.35059814 467.03355225 -446.29162598 466.6463623 C-443.0274329 465.45260811 -439.7637201 464.25754662 -436.5 463.0625 C-434.19078969 462.21784193 -431.88154439 461.37327951 -429.57226562 460.52880859 C-419.85381758 456.97441853 -410.13658019 453.41672527 -400.4200592 449.85707092 C-396.11349517 448.27937976 -391.8067627 446.70214874 -387.5 445.125 C-386.67364044 444.82230194 -385.84728088 444.51960388 -384.99588013 444.20773315 C-372.23988163 439.53617202 -359.46642515 434.91451738 -346.68460083 430.31414795 C-334.4066039 425.89327689 -322.17110602 421.36944481 -309.97241211 416.73339844 C-308.3271687 416.12165055 -306.66521927 415.55507309 -305 415 C-304.0320165 412.27508092 -303.26140647 409.67005766 -302.5625 406.875 C-302.3449707 406.05531738 -302.12744141 405.23563477 -301.90332031 404.39111328 C-300.92971037 400.70755086 -300.00368648 397.01519667 -299.10546875 393.3125 C-294.87463513 376.31189002 -288.24187013 360.1170828 -280.75 344.3125 C-279.94743774 342.60924561 -279.94743774 342.60924561 -279.12866211 340.87158203 C-276.44181323 335.35653387 -273.63006437 330.28791279 -269.9609375 325.36328125 C-263.48211754 317.29978142 -263.48211754 317.29978142 -261.06689453 307.61083984 C-262.39568744 301.98280732 -265.32292616 297.14315614 -268.21533203 292.18798828 C-271.34564073 286.5962549 -273.93489566 280.74744006 -276.6149292 274.9302063 C-277.97829347 271.98742708 -279.36852245 269.05769347 -280.75891113 266.12760925 C-285.1263512 256.92116103 -289.36722365 247.6609282 -293.5625 238.375 C-298.45826 227.54299051 -303.43376877 216.75333626 -308.5 206 C-313.74273709 194.86746554 -318.90870716 183.70264738 -324 172.5 C-324.30365479 171.83274902 -324.60730957 171.16549805 -324.92016602 170.47802734 C-329.37119433 160.69135466 -333.71224245 150.85923582 -338 141 C-330.41428283 143.27156995 -323.38268884 146.49162801 -316.24960327 149.89205933 C-314.13449725 150.90026477 -312.01652804 151.9022194 -309.89770508 152.90258789 C-306.98700773 154.27699382 -304.07718782 155.65322972 -301.16796875 157.03076172 C-295.18694651 159.85984151 -289.18914005 162.65243093 -283.1875 165.4375 C-282.05812012 165.96182617 -280.92874023 166.48615234 -279.76513672 167.02636719 C-269.90448747 171.59610451 -260.01872426 176.11022621 -250.13061523 180.62014771 C-238.52020066 185.91666621 -226.93365721 191.26321953 -215.35836792 196.63604736 C-212.7149648 197.86225973 -210.07065942 199.08650352 -207.42602539 200.31005859 C-200.16892413 203.66849823 -192.91543999 207.03185296 -185.69140625 210.4609375 C-184.66120361 210.94449707 -183.63100098 211.42805664 -182.56958008 211.92626953 C-180.76602602 212.77299826 -178.96715012 213.62981095 -177.17456055 214.49951172 C-172.92035766 216.48544484 -172.92035766 216.48544484 -168.31640625 216.953125 C-165.37801195 215.74407237 -162.85707538 214.22717072 -160.1875 212.5 C-159.02749125 211.76723145 -157.86596496 211.03686107 -156.703125 210.30859375 C-156.09662109 209.92815918 -155.49011719 209.54772461 -154.86523438 209.15576172 C-130.95841347 194.34229442 -104.4371634 183.6993707 -77.15625 176.97265625 C-76.20168159 176.73227882 -76.20168159 176.73227882 -75.22782898 176.48704529 C-73 176 -73 176 -70.76351929 175.76387024 C-66.16632148 175.1931001 -66.16632148 175.1931001 -62.68231201 172.3964386 C-61.61518393 170.1571367 -60.82440544 167.93374262 -60.0703125 165.5703125 C-59.75770981 164.69443985 -59.44510712 163.8185672 -59.12303162 162.91615295 C-58.08951535 159.99652952 -57.10828191 157.0618834 -56.125 154.125 C-55.39956997 152.04984951 -54.67024165 149.97605815 -53.93725586 147.90356445 C-52.39013635 143.51779356 -50.8611884 139.12627371 -49.34423828 134.72998047 C-45.94360674 124.91462198 -42.34054321 115.1737305 -38.75259399 105.4256897 C-36.75504767 99.99046025 -34.77304585 94.54956633 -32.7890625 89.109375 C-21.93671235 59.37804284 -11.02858206 29.66645992 0 0 Z " fill="#FE1E01" transform="translate(599,120)"/>
<path d="M0 0 C1.09538086 0.16943115 1.09538086 0.16943115 2.21289062 0.34228516 C52.9609356 8.27299428 101.82022486 37.87621129 132.4375 79.125 C138.04014546 86.8272947 143.16087785 94.79911366 148 103 C148.3515918 103.59184082 148.70318359 104.18368164 149.06542969 104.79345703 C166.80256934 135.06540782 174.86476102 170.12130538 174 205 C165.42 205 156.84 205 148 205 C147.76216797 202.13441406 147.76216797 202.13441406 147.51953125 199.2109375 C144.26866746 162.28630324 135.10760059 128.34042332 113 98 C112.59233398 97.43152344 112.18466797 96.86304688 111.76464844 96.27734375 C88.38130756 63.9711702 54.88727867 42.38073697 17 31 C15.52853516 30.54173828 15.52853516 30.54173828 14.02734375 30.07421875 C0.12090077 25.98408846 -13.62968354 24.51802394 -28.06616211 24.66381836 C-30.5646183 24.6875201 -33.06200544 24.68433199 -35.56054688 24.67773438 C-49.75080666 24.70076796 -63.49414854 25.91346123 -77.25 29.625 C-78.22106689 29.88514893 -79.19213379 30.14529785 -80.19262695 30.41333008 C-125.19259615 42.90986146 -163.8398982 72.38872225 -187.125 112.9375 C-188.43531459 115.28207074 -189.71820369 117.63949034 -191 120 C-191.58523438 121.04027344 -192.17046875 122.08054687 -192.7734375 123.15234375 C-201.00347144 138.51383243 -206.30001238 155.81826062 -209 173 C-209.19078125 174.0209375 -209.3815625 175.041875 -209.578125 176.09375 C-211.33131229 186.01178095 -211.58985504 195.95144857 -212 206 C-220.91 206 -229.82 206 -239 206 C-240.47481298 150.4487111 -217.17119047 99.53247065 -179.71875 59.45703125 C-171.24348437 50.59652627 -161.96171991 43.12289999 -152 36 C-151.05471436 35.3196167 -151.05471436 35.3196167 -150.09033203 34.62548828 C-107.3469663 4.1562079 -51.87029011 -8.93780895 0 0 Z " fill="#FFFCFC" transform="translate(631,395)"/>
<path d="M0 0 C36.24252729 -0.26262701 69.70817883 6.46863159 103 21 C103.84771973 21.36963867 104.69543945 21.73927734 105.56884766 22.12011719 C124.41887692 30.45946334 142.09137045 40.85808863 158 54 C158.51933105 54.42458496 159.03866211 54.84916992 159.57373047 55.28662109 C171.07197066 64.70631983 182.52200763 74.51216549 192 86 C192.804375 86.91652344 193.60875 87.83304687 194.4375 88.77734375 C205.80196126 101.76823686 215.57056313 115.94718318 224 131 C224.4316748 131.76763672 224.86334961 132.53527344 225.30810547 133.32617188 C247.0965207 172.46333235 256.4888606 213.51368564 256 258 C247.42 258 238.84 258 230 258 C229.7525 253.875 229.505 249.75 229.25 245.5 C225.53440043 191.4138765 205.86860996 141.19519379 168.984375 101.171875 C167.23881698 99.26138237 165.58142549 97.30995786 163.9375 95.3125 C160.63956722 91.44997547 156.8747344 88.26830974 153 85 C152.06285156 84.175 151.12570312 83.35 150.16015625 82.5 C118.26276392 54.58285407 77.96976019 35.86610111 36 30 C35.01950684 29.85868652 34.03901367 29.71737305 33.02880859 29.57177734 C22.04088232 28.0035822 11.0805788 26.68398635 0 26 C0 17.42 0 8.84 0 0 Z " fill="#FFFCFC" transform="translate(599,342)"/>
<path d="M0 0 C18.85513382 16.51408731 32.60008802 38.92327841 35.5 64.14453125 C35.60622243 66.95942558 35.59572987 69.76572648 35.5625 72.58203125 C35.541875 75.07765625 35.52125 77.57328125 35.5 80.14453125 C26.26 80.14453125 17.02 80.14453125 7.5 80.14453125 C7.438125 77.64890625 7.37625 75.15328125 7.3125 72.58203125 C6.37902431 53.44393487 -2.58582 36.16786436 -16.5 23.14453125 C-34.23393995 8.42308751 -54.07153875 4.65821033 -76.5 6.14453125 C-90.19999347 7.94101227 -102.06618248 14.37291498 -112.5 23.14453125 C-113.31855469 23.76457031 -114.13710938 24.38460937 -114.98046875 25.0234375 C-127.4265524 35.50130327 -134.34202538 52.39131654 -136.5 68.14453125 C-136.83 72.10453125 -137.16 76.06453125 -137.5 80.14453125 C-146.08 80.14453125 -154.66 80.14453125 -163.5 80.14453125 C-163.5 51.69887415 -154.60639513 29.10086479 -135.5 8.14453125 C-134.90574219 7.46777344 -134.31148437 6.79101562 -133.69921875 6.09375 C-100.04880296 -30.2286591 -37.02863336 -31.01978283 0 0 Z " fill="#FFFCFB" transform="translate(662.5,520.85546875)"/>
<path d="M0 0 C1.11761719 0.54398437 2.23523438 1.08796875 3.38671875 1.6484375 C19.26623174 9.80847675 33.8170083 21.02126038 45 35 C42.94062935 37.08650731 40.87766489 39.16924055 38.8125 41.25 C38.23435547 41.83652344 37.65621094 42.42304688 37.06054688 43.02734375 C33.85617604 46.24981837 30.62534642 49.24173266 27 52 C23.13436284 50.40666946 20.66156903 47.89591231 17.6875 45 C-0.45764129 27.98068288 -25.26208703 15.96303693 -50 13 C-50.84304688 12.88914062 -51.68609375 12.77828125 -52.5546875 12.6640625 C-79.81193995 9.59865721 -107.09542597 14.45407471 -131 28 C-132.34191406 28.72123047 -132.34191406 28.72123047 -133.7109375 29.45703125 C-151.29685584 39.33132521 -164.54496771 53.66677905 -176 70 C-183.61852128 65.69331014 -190.92289083 61.15125867 -198 56 C-195.42849881 40.98799307 -173.76973426 23.52365834 -161.90625 14.99609375 C-113.24579447 -18.83656722 -53.91419606 -26.26326863 0 0 Z " fill="#FFFCFC" transform="translate(667,459)"/>
<path d="M0 0 C0.68603516 1.87011719 0.68603516 1.87011719 1.2890625 4.296875 C1.61777344 5.61171875 1.61777344 5.61171875 1.953125 6.953125 C2.17484375 7.87609375 2.3965625 8.7990625 2.625 9.75 C2.85445312 10.6575 3.08390625 11.565 3.3203125 12.5 C4.37292978 16.78565607 5.12906906 20.56435941 5 25 C-1.02255829 27.07370139 -7.00910605 29.00833151 -13.1875 30.5625 C-43.2231634 39.04433186 -72.86245526 56.83074026 -95.69921875 77.8828125 C-97.78491168 79.80207493 -99.90956223 81.6570513 -102.0625 83.5 C-109.38171603 89.90798833 -115.8309751 96.81449262 -121.9140625 104.40234375 C-124.536419 107.66801242 -127.25723931 110.83527612 -130 114 C-134.47282891 111.880441 -138.27721462 109.05194612 -142.25 106.125 C-142.99507813 105.59519531 -143.74015625 105.06539063 -144.5078125 104.51953125 C-145.21164062 104.00003906 -145.91546875 103.48054688 -146.640625 102.9453125 C-147.60790527 102.24172607 -147.60790527 102.24172607 -148.59472656 101.52392578 C-150 100 -150 100 -150 96 C-148.63246425 93.86415241 -147.26902149 91.96517821 -145.6875 90 C-145.23600586 89.42822021 -144.78451172 88.85644043 -144.31933594 88.26733398 C-139.50112331 82.24456819 -134.3490717 76.55349482 -129 71 C-128.17145508 70.13858398 -128.17145508 70.13858398 -127.32617188 69.25976562 C-119.95169994 61.63810468 -112.44976818 54.44009359 -104 48 C-103.44763672 47.57654297 -102.89527344 47.15308594 -102.32617188 46.71679688 C-83.69409702 32.50242583 -23.59442661 -11.7972133 0 0 Z " fill="#FFFCFC" transform="translate(543,349)"/>
<path d="M0 0 C5.60476823 1.57804154 10.35050626 4.26416385 15.375 7.125 C16.20644531 7.59292969 17.03789062 8.06085938 17.89453125 8.54296875 C19.93234954 9.69070549 21.96735569 10.84313282 24 12 C23.443125 13.13953125 22.88625 14.2790625 22.3125 15.453125 C4.72077863 51.79330493 -3.32823383 86.72790146 -5 127 C-14.24 127 -23.48 127 -33 127 C-34.17852539 83.68919195 -23.65438622 38.29882874 -1 1 C-0.67 0.67 -0.34 0.34 0 0 Z " fill="#FFFCFC" transform="translate(375,474)"/>
<path d="M0 0 C4.0598047 1.35326823 5.13785729 3.97367584 7.1875 7.5 C7.58042236 8.16999023 7.97334473 8.83998047 8.37817383 9.53027344 C23.4482401 35.69328868 30.27404418 62.85514049 30 93 C21.42 93 12.84 93 4 93 C3.87625 89.16375 3.87625 89.16375 3.75 85.25 C2.59986052 61.71236302 -4.31893305 35.27092642 -20 17 C-18.48991143 13.0807528 -16.21311928 11.43120722 -12.8125 9.0625 C-11.82894531 8.37414062 -10.84539063 7.68578125 -9.83203125 6.9765625 C-8.89746094 6.32429687 -7.96289062 5.67203125 -7 5 C-5.66614308 3.9798509 -4.33270892 2.95914838 -3 1.9375 C-2.01 1.298125 -1.02 0.65875 0 0 Z " fill="#FFFBFA" transform="translate(724,508)"/>
<path d="M0 0 C4.95 0 9.9 0 15 0 C15 9.57 15 19.14 15 29 C18.63 29 22.26 29 26 29 C26 19.43 26 9.86 26 0 C31.28 0 36.56 0 42 0 C42 23.43 42 46.86 42 71 C36.72 71 31.44 71 26 71 C26 60.77 26 50.54 26 40 C22.37 40 18.74 40 15 40 C15 50.23 15 60.46 15 71 C10.05 71 5.1 71 0 71 C0 47.57 0 24.14 0 0 Z " fill="#FFFDFD" transform="translate(738,665)"/>
<path d="M0 0 C3.63 0 7.26 0 11 0 C15.53862492 9.58750944 19.86997361 19.22896196 24 29 C24.33 19.43 24.66 9.86 25 0 C29.29 0 33.58 0 38 0 C38 23.43 38 46.86 38 71 C34.7 71 31.4 71 28 71 C24.43555629 63.37508358 21.21489818 55.66465237 18.1875 47.8125 C16.805625 44.244375 15.42375 40.67625 14 37 C13.67 48.22 13.34 59.44 13 71 C8.71 71 4.42 71 0 71 C0 47.57 0 24.14 0 0 Z " fill="#FFFCFC" transform="translate(565,665)"/>
<path d="M0 0 C4.74520217 2.42777786 8.58458897 5.31303591 11.125 10.0625 C11.94253805 14.87689073 11.80656427 19.49336494 11.6875 24.375 C6.7375 24.375 1.7875 24.375 -3.3125 24.375 C-3.5078125 21.57552083 -3.703125 18.77604167 -3.8984375 15.9765625 C-4.07613964 13.21991121 -4.07613964 13.21991121 -6.3125 11.375 C-8.8125 10.95833333 -8.8125 10.95833333 -11.3125 11.375 C-13.35866201 14.44424301 -13.56218921 15.05219338 -13.55541992 18.50756836 C-13.55849655 19.33530258 -13.56157318 20.1630368 -13.56474304 21.01585388 C-13.55755753 21.90652054 -13.55037201 22.79718719 -13.54296875 23.71484375 C-13.54251053 24.6333461 -13.54205231 25.55184845 -13.5415802 26.4981842 C-13.53855919 28.44077852 -13.53067739 30.38337044 -13.51831055 32.32592773 C-13.50009227 35.29745077 -13.49780066 38.2686614 -13.49804688 41.24023438 C-13.49312999 43.12760686 -13.48730093 45.01497723 -13.48046875 46.90234375 C-13.47935593 47.79098618 -13.4782431 48.6796286 -13.47709656 49.59519958 C-13.47071671 50.42608597 -13.46433685 51.25697235 -13.45776367 52.11303711 C-13.45395187 52.84123154 -13.45014008 53.56942596 -13.44621277 54.31968689 C-13.30806392 56.44318748 -12.89126464 58.33116371 -12.3125 60.375 C-8.17156302 60.58470559 -8.17156302 60.58470559 -4.3125 59.375 C-3.20735234 56.05955701 -2.99142369 53.17089889 -2.75 49.6875 C-2.66621094 48.50800781 -2.58242188 47.32851563 -2.49609375 46.11328125 C-2.40521484 44.75783203 -2.40521484 44.75783203 -2.3125 43.375 C-4.2925 43.375 -6.2725 43.375 -8.3125 43.375 C-8.3125 40.405 -8.3125 37.435 -8.3125 34.375 C-1.7125 34.375 4.8875 34.375 11.6875 34.375 C11.6875 46.585 11.6875 58.795 11.6875 71.375 C8.3875 71.375 5.0875 71.375 1.6875 71.375 C1.6875 69.725 1.6875 68.075 1.6875 66.375 C1.0275 66.375 0.3675 66.375 -0.3125 66.375 C-0.56 66.99375 -0.8075 67.6125 -1.0625 68.25 C-2.57585322 70.82270048 -3.5733018 71.2754627 -6.3125 72.375 C-12.24168061 73.24219308 -17.41081138 72.63277471 -22.625 69.63671875 C-27.47846543 66.00785455 -28.96628487 61.04225829 -30.3125 55.375 C-30.60138563 52.3339826 -30.6400537 49.31122339 -30.6484375 46.2578125 C-30.6550943 45.4012204 -30.6617511 44.5446283 -30.66860962 43.66207886 C-30.67868719 41.85856254 -30.68342816 40.05500929 -30.68310547 38.25146484 C-30.68747658 35.51466537 -30.72384141 32.77948342 -30.76171875 30.04296875 C-30.76758866 28.28125545 -30.77155689 26.51953458 -30.7734375 24.7578125 C-30.78780853 23.95127228 -30.80217957 23.14473206 -30.81698608 22.31375122 C-30.76605719 15.8781234 -29.26534143 9.71241473 -24.90048218 4.77908325 C-17.62692329 -1.61763834 -9.1553159 -1.72741809 0 0 Z " fill="#FFFCFC" transform="translate(715.3125,664.625)"/>
<path d="M0 0 C29 0 29 0 37 4 C42.88440852 11.39323122 42.65879668 18.96507415 42 28 C41.00676536 32.0208053 39.57980998 34.77923774 36.28125 37.328125 C28.69835184 41.89071627 24.83152154 41 15 41 C15 50.9 15 60.8 15 71 C10.05 71 5.1 71 0 71 C0 47.57 0 24.14 0 0 Z " fill="#FFFDFC" transform="translate(381,665)"/>
<path d="M0 0 C6.27 0 12.54 0 19 0 C22.16426984 14.55868382 25.0236993 29.16856775 27.76293945 43.81234741 C28.12924878 45.77043837 28.49676152 47.72830459 28.86547852 49.6859436 C29.38952086 52.47220226 29.90846367 55.25936088 30.42578125 58.046875 C30.66449699 59.31270668 30.66449699 59.31270668 30.90803528 60.60411072 C31.05222397 61.3879866 31.19641266 62.17186249 31.3449707 62.97949219 C31.47200882 63.66211121 31.59904694 64.34473022 31.72993469 65.04803467 C32 67 32 67 32 71 C27.05 71 22.1 71 17 71 C16.34 66.05 15.68 61.1 15 56 C11.37 56 7.74 56 4 56 C3.93941406 56.91523437 3.87882812 57.83046875 3.81640625 58.7734375 C3.73261719 59.96195313 3.64882813 61.15046875 3.5625 62.375 C3.48128906 63.55835938 3.40007812 64.74171875 3.31640625 65.9609375 C3 69 3 69 2 71 C-2.62 71 -7.24 71 -12 71 C-11.49093387 61.53815746 -10.1078631 52.61006778 -8.16043091 43.37002563 C-7.35316508 39.53789615 -6.57191285 35.70045996 -5.7890625 31.86328125 C-5.63403763 31.10615341 -5.47901276 30.34902557 -5.31929016 29.56895447 C-3.32012271 19.75032174 -1.65797221 9.88151435 0 0 Z " fill="#FFFAF9" transform="translate(341,665)"/>
<path d="M0 0 C5.06856185 2.84450363 7.93459418 6.59354311 9.57421875 12.1640625 C9.85135978 14.61214157 9.78029398 16.6911597 9.57421875 19.1640625 C8.18004102 19.50425402 6.78377217 19.83588029 5.38671875 20.1640625 C4.60941406 20.3496875 3.83210937 20.5353125 3.03125 20.7265625 C0.57421875 21.1640625 0.57421875 21.1640625 -4.42578125 21.1640625 C-4.92078125 16.2140625 -4.92078125 16.2140625 -5.42578125 11.1640625 C-7.40578125 11.8240625 -9.38578125 12.4840625 -11.42578125 13.1640625 C-11.78453843 17.64852724 -11.71290812 20.81299972 -8.95703125 24.50390625 C-6.15533345 27.54146126 -3.0075641 30.20137221 0.09765625 32.921875 C5.21029249 37.55066554 10.16571284 42.26425605 10.91015625 49.37109375 C11.04430374 61.75290699 11.04430374 61.75290699 6.57421875 67.1640625 C-0.16219207 72.38821783 -6.108497 72.93976777 -14.42578125 72.1640625 C-20.25671768 70.26177118 -23.76754654 66.14888498 -26.67578125 60.9140625 C-27.74602458 56.98983697 -27.58428447 53.20589455 -27.42578125 49.1640625 C-24.43097208 48.2917213 -21.79002214 48.05576484 -18.67578125 48.1015625 C-17.8765625 48.11058594 -17.07734375 48.11960937 -16.25390625 48.12890625 C-15.650625 48.14050781 -15.04734375 48.15210938 -14.42578125 48.1640625 C-14.30460938 48.79054688 -14.1834375 49.41703125 -14.05859375 50.0625 C-13.89101563 50.87976563 -13.7234375 51.69703125 -13.55078125 52.5390625 C-13.38835938 53.35117187 -13.2259375 54.16328125 -13.05859375 55 C-12.55919193 57.35080173 -12.55919193 57.35080173 -10.42578125 59.1640625 C-7.82297557 58.84364853 -7.82297557 58.84364853 -5.42578125 58.1640625 C-4.95422746 51.58681937 -4.95422746 51.58681937 -7.828125 45.78515625 C-10.85805393 42.71077848 -14.34258884 40.15169607 -17.72265625 37.4765625 C-22.09545404 33.73567191 -25.59541719 29.65515469 -27.42578125 24.1640625 C-27.95012286 17.26695356 -28.19047118 11.11470142 -24.42578125 5.1640625 C-17.61249556 -1.00494086 -8.88587057 -3.06211965 0 0 Z " fill="#FFFAF9" transform="translate(640.42578125,664.8359375)"/>
<path d="M0 0 C2.77963588 2.01523601 4.56593475 3.98047588 6.5 6.8125 C6.9125 7.410625 7.325 8.00875 7.75 8.625 C8.91843722 12.03294188 8.6196222 15.22383398 8.5 18.8125 C7.08461283 19.15122513 5.66762037 19.48324624 4.25 19.8125 C3.46109375 19.998125 2.6721875 20.18375 1.859375 20.375 C-0.5 20.8125 -0.5 20.8125 -4.5 20.8125 C-5.16 17.8425 -5.82 14.8725 -6.5 11.8125 C-8.16611905 11.769779 -9.83382885 11.77186168 -11.5 11.8125 C-12.87375369 12.96895826 -12.87375369 12.96895826 -12.75 16.125 C-12.48818801 19.98672692 -11.98053094 21.02190269 -9.5 23.8125 C-9.5 24.4725 -9.5 25.1325 -9.5 25.8125 C-8.93152344 26.06644531 -8.36304688 26.32039062 -7.77734375 26.58203125 C-0.10252275 30.72880417 6.2150568 37.80738632 9.8125 45.6875 C11.30682096 52.47986799 11.17076749 57.94820933 7.703125 64.08984375 C4.80518926 68.23916084 1.17607155 70.19911859 -3.5 71.8125 C-10.59420812 72.72446098 -16.63616505 72.06828565 -22.5 67.8125 C-26.97774664 63.33475336 -28.60292774 58.69498682 -28.625 52.4375 C-28.58375 51.24125 -28.5425 50.045 -28.5 48.8125 C-22.065 48.3175 -22.065 48.3175 -15.5 47.8125 C-14.51 51.1125 -13.52 54.4125 -12.5 57.8125 C-10.85 58.1425 -9.2 58.4725 -7.5 58.8125 C-6.10573129 57.62344598 -6.10573129 57.62344598 -6.0625 54.25 C-6.15010518 48.79901128 -8.85424218 45.64363533 -12.5 41.8125 C-14.47070655 39.99819873 -16.48717513 38.2607611 -18.5390625 36.5390625 C-23.43310208 32.22996789 -28.09364074 27.46973335 -28.8359375 20.7890625 C-28.96575868 9.65040524 -28.96575868 9.65040524 -24.5 4.8125 C-23.860625 4.07 -23.22125 3.3275 -22.5625 2.5625 C-16.37777461 -2.68514578 -7.36883331 -2.50013987 0 0 Z " fill="#FFFAF9" transform="translate(857.5,665.1875)"/>
<path d="M0 0 C4.62 0 9.24 0 14 0 C16.84986996 5.59795885 19.48212798 11.24486394 22 17 C23.98 11.39 25.96 5.78 28 0 C32.29 0 36.58 0 41 0 C39.49078561 5.78372981 37.8904615 11.4684949 35.921875 17.11328125 C35.38820313 18.6437207 35.38820313 18.6437207 34.84375 20.20507812 C34.10673905 22.29897888 33.36177342 24.39009466 32.609375 26.47851562 C32.0834375 27.99928711 32.0834375 27.99928711 31.546875 29.55078125 C31.22557617 30.45481689 30.90427734 31.35885254 30.57324219 32.2902832 C29.36833133 37.98589888 31.52158397 42.68645562 33.72265625 47.89453125 C33.98759384 48.52735519 34.25253143 49.16017914 34.52549744 49.81217957 C35.36515763 51.81487706 36.21341297 53.81378335 37.0625 55.8125 C37.91351099 57.82972012 38.7627143 59.84768112 39.61021423 61.86637878 C40.37485343 63.68554185 41.14446092 65.50261422 41.91430664 67.31958008 C43 70 43 70 43 71 C38.05 71 33.1 71 28 71 C26.828125 68.39583333 25.65625 65.79166667 24.484375 63.1875 C22.73109625 59.42256459 20.85734892 55.71469784 19 52 C16.69 58.27 14.38 64.54 12 71 C7.71 71 3.42 71 -1 71 C-0.1923019 66.15381142 0.7798746 62.59441541 2.5390625 58.09765625 C3.04227294 56.78213279 3.54485816 55.46637003 4.046875 54.15039062 C4.83460217 52.10274197 5.62703408 50.05733283 6.43066406 48.01586914 C7.21040473 46.02753043 7.96971373 44.03230117 8.7265625 42.03515625 C9.18627441 40.8531665 9.64598633 39.67117676 10.11962891 38.45336914 C11.66155693 32.40495762 10.06056362 27.57554374 7.71484375 21.953125 C7.26689453 20.86128906 6.81894531 19.76945313 6.35742188 18.64453125 C5.88884766 17.52433594 5.42027344 16.40414062 4.9375 15.25 C4.00445969 13.00713913 3.07585162 10.76242769 2.15234375 8.515625 C1.73976318 7.52852539 1.32718262 6.54142578 0.90209961 5.52441406 C0 3 0 3 0 0 Z " fill="#FFFBFB" transform="translate(467,665)"/>
<path d="M0 0 C5.3537465 1.55652055 10.00150947 3.9817509 14.875 6.625 C15.65875 7.04523437 16.4425 7.46546875 17.25 7.8984375 C19.16892057 8.9281022 21.08477603 9.96347567 23 11 C22.33093615 15.29995916 20.82158091 19.08587988 19.125 23.0625 C14.37693149 34.24074168 12.52941067 45.15915543 11.8125 57.25 C11.544375 61.4575 11.27625 65.665 11 70 C2.42 70 -6.16 70 -15 70 C-15.64469099 45.0719483 -10.56446825 22.6683405 0 0 Z " fill="#FFFCFB" transform="translate(460,531)"/>
<path d="M0 0 C10.56 0 21.12 0 32 0 C32 3.63 32 7.26 32 11 C26.72 11 21.44 11 16 11 C16 16.61 16 22.22 16 28 C19.96 28 23.92 28 28 28 C28 31.63 28 35.26 28 39 C24.04 39 20.08 39 16 39 C16 45.93 16 52.86 16 60 C21.28 60 26.56 60 32 60 C32 63.63 32 67.26 32 71 C21.44 71 10.88 71 0 71 C0 47.57 0 24.14 0 0 Z " fill="#FFFAF9" transform="translate(431,665)"/>
<path d="M0 0 C12.21 0 24.42 0 37 0 C37 3.96 37 7.92 37 12 C33.37 12 29.74 12 26 12 C26 31.47 26 50.94 26 71 C20.72 71 15.44 71 10 71 C10 51.53 10 32.06 10 12 C6.7 12 3.4 12 0 12 C0 8.04 0 4.08 0 0 Z " fill="#FFF9F8" transform="translate(787,665)"/>
<path d="M0 0 C5.28 0 10.56 0 16 0 C16 23.43 16 46.86 16 71 C10.72 71 5.44 71 0 71 C0 47.57 0 24.14 0 0 Z " fill="#FFFBFB" transform="translate(538,665)"/>
<path d="M0 0 C4.95 0 9.9 0 15 0 C15 23.43 15 46.86 15 71 C10.05 71 5.1 71 0 71 C0 47.57 0 24.14 0 0 Z " fill="#FFFFFF" transform="translate(660,665)"/>
<path d="M0 0 C8 0 8 0 10.46875 1.09375 C12.70259537 3.87465954 12.53174604 5.97618952 12.5 9.5 C12.5103125 10.6446875 12.520625 11.789375 12.53125 12.96875 C12 16 12 16 10.46875 17.90625 C8 19 8 19 0 19 C0 12.73 0 6.46 0 0 Z " fill="#FF2508" transform="translate(396,676)"/>
<path d="M0 0 C0.66 0.33 1.32 0.66 2 1 C2.45688229 3.39489934 2.79725285 5.70779115 3.0625 8.125 C3.21847656 9.42695312 3.37445313 10.72890625 3.53515625 12.0703125 C3.68855469 13.36710938 3.84195312 14.66390625 4 16 C4.31930341 18.33563505 4.65770937 20.66757716 5 23 C2.36 23 -0.28 23 -3 23 C-2.69224454 19.91617386 -2.3779641 16.83304635 -2.0625 13.75 C-1.97548828 12.87730469 -1.88847656 12.00460937 -1.79882812 11.10546875 C-1.71181641 10.26113281 -1.62480469 9.41679688 -1.53515625 8.546875 C-1.456604 7.77182617 -1.37805176 6.99677734 -1.29711914 6.19824219 C-1.00997086 4.07376962 -0.56205228 2.06703475 0 0 Z " fill="#FF3419" transform="translate(350,689)"/>
</svg>
